<svg xmlns="http://www.w3.org/2000/svg" viewBox="0 0 2667.000000 633.000000" preserveAspectRatio="xMidYMid meet">
<g transform="translate(0.000000,633.000000) scale(0.100000,-0.100000)" fill="#aa6939">

<path d="M2487 6282 c856 -1073 1468 -1847 1467 -1856 -1 -6 -593 -755 -1318
-1664 l-1316 -1652 1 -248 c1 -136 4 -386 8 -557 l6 -309 43 53 42 54 0 -52 0
-52 50 3 49 3 1716 2154 c944 1184 1714 2158 1712 2164 -1 5 -360 459 -797
1008 l-795 998 -453 1 -454 0 39 -48z"/>
<path d="M14345 6289 c-515 -48 -956 -310 -1227 -729 -421 -648 -421 -1622 0
-2255 97 -145 279 -352 393 -448 309 -258 683 -387 1120 -387 239 0 430 30
622 97 620 215 1037 774 1116 1495 14 122 14 384 1 503 -35 317 -141 631 -291
866 -76 119 -239 320 -331 410 -346 338 -853 499 -1403 448z m524 -789 c116
-24 251 -88 343 -165 270 -222 376 -920 218 -1427 -84 -273 -269 -494 -496
-594 -116 -51 -214 -68 -394 -67 -195 0 -273 17 -415 88 -173 86 -249 168
-327 348 -151 348 -157 867 -15 1245 93 248 279 451 491 533 113 44 196 57
356 58 107 1 170 -4 239 -19z"/>
<path d="M0 4435 l0 -1775 45 0 45 0 0 -55 0 -55 1063 0 1064 0 261 328 262
327 -85 5 -85 5 40 50 c22 28 40 53 40 58 0 4 -400 7 -890 7 l-890 0 0 375 0
375 860 0 860 0 0 305 0 305 -45 0 -45 0 0 55 0 55 -815 0 -815 0 0 320 0 320
925 0 c509 0 925 4 925 8 0 5 -135 178 -301 385 l-301 377 -1059 0 -1059 0 0
-1775z"/>
<path d="M6700 4435 l0 -1775 44 0 45 0 3 -53 3 -52 393 -3 392 -2 0 634 0
634 513 5 c533 5 572 8 742 54 309 84 575 308 691 583 61 146 86 266 91 452 8
251 -31 442 -127 628 -47 88 -222 314 -296 379 -162 143 -386 242 -622 275
-95 14 -248 16 -992 16 l-880 0 0 -1775z m1769 1031 c85 -20 171 -56 217 -91
50 -38 75 -123 81 -270 5 -131 -9 -221 -48 -297 -32 -63 -121 -151 -185 -182
-132 -65 -224 -76 -630 -76 l-324 0 0 471 0 471 408 -5 c337 -3 420 -7 481
-21z"/>
<path d="M10010 4435 l0 -1775 44 0 45 0 3 -53 3 -52 1255 0 1255 0 3 328 2
327 -44 0 -45 0 -3 58 -3 57 -817 3 -818 2 0 1385 0 1385 -45 0 -45 0 0 55 0
55 -395 0 -395 0 0 -1775z"/>
<path d="M16820 4435 l0 -1775 45 0 45 0 0 -55 0 -55 390 0 390 0 0 696 0 696
463 -5 c503 -4 526 -7 644 -64 61 -30 81 -55 114 -143 35 -92 57 -223 78 -465
22 -247 43 -406 67 -498 23 -90 33 -107 65 -107 21 0 28 -6 33 -27 4 -16 12
-40 18 -55 l10 -28 389 0 c214 0 389 2 389 3 0 2 -13 31 -30 64 -60 119 -83
260 -105 623 -21 350 -56 520 -135 669 -43 79 -192 265 -256 316 l-50 41 63
37 c195 116 316 282 380 522 23 89 26 119 27 275 1 211 -17 299 -94 457 -54
111 -206 313 -296 392 -118 104 -268 184 -432 229 l-97 27 -1057 3 -1058 3 0
-1776z m1963 1023 c113 -41 143 -63 169 -128 20 -49 23 -72 23 -220 0 -148 -3
-171 -23 -221 -64 -160 -169 -237 -368 -269 -32 -6 -247 -10 -476 -10 l-418 0
0 441 0 440 508 -3 507 -3 78 -27z"/>
<path d="M20400 4435 l0 -1775 45 0 45 0 0 -55 0 -55 1348 2 1347 3 3 328 2
327 -44 0 -45 0 -3 58 -3 57 -907 3 -908 2 0 375 0 375 855 0 855 0 0 305 0
305 -45 0 -45 0 0 55 0 55 -810 0 -810 0 0 320 0 320 935 0 935 0 0 330 0 330
-45 0 -45 0 0 55 0 55 -1330 0 -1330 0 0 -1775z"/>
<path d="M23612 4438 l3 -1773 42 -3 42 -3 3 -52 3 -52 393 -3 392 -2 0 696 0
696 463 -5 c512 -4 537 -7 652 -71 57 -31 62 -37 92 -107 44 -102 69 -238 88
-474 20 -253 49 -455 78 -547 20 -65 26 -73 52 -78 24 -4 31 -13 45 -55 l17
-50 346 -3 347 -2 0 119 c0 65 -4 140 -9 167 -15 80 -30 237 -41 441 -16 305
-57 499 -135 638 -45 81 -194 265 -247 306 -24 18 -47 36 -52 40 -4 4 11 17
35 29 70 35 183 126 234 187 232 283 271 764 88 1114 -54 105 -233 321 -327
396 -101 80 -251 155 -381 190 l-100 28 -1063 3 -1062 3 2 -1773z m1892 1037
c87 -16 185 -57 214 -89 34 -36 54 -114 59 -231 14 -297 -80 -450 -322 -523
-41 -13 -135 -16 -507 -19 l-458 -4 0 440 0 441 469 0 c370 0 485 -3 545 -15z"/>
<path d="M5059 5771 c-183 -230 -334 -423 -336 -427 -1 -5 93 -128 210 -274
321 -402 320 -401 334 -387 7 7 260 323 562 702 l550 690 -84 5 -84 5 20 25
c11 14 29 37 40 53 l20 27 -449 0 -449 0 -334 -419z"/>
<path d="M4950 3809 c-118 -148 -219 -275 -224 -283 -6 -9 91 -137 329 -437
186 -233 341 -426 344 -429 4 -3 26 -29 50 -57 l43 -53 444 0 c244 0 444 2
444 5 0 5 -1209 1525 -1213 1525 -1 -1 -99 -122 -217 -271z"/>

</g>
</svg>
