<svg xmlns="http://www.w3.org/2000/svg" viewBox="0 0 755.000000 292.000000" preserveAspectRatio="xMidYMid meet">
<g transform="translate(0.000000,292.000000) scale(0.100000,-0.100000)" fill="#337666">

<path d="M1195 2903 c-60 -156 -335 -884 -335 -889 0 -10 141 -184 150 -184 4
0 32 70 61 155 l54 155 185 0 186 0 38 -110 38 -110 114 0 c63 0 114 2 114 4
0 3 -347 932 -365 979 -6 15 -22 17 -120 17 -98 0 -114 -2 -120 -17z m180
-414 c30 -90 55 -167 55 -171 0 -4 -54 -8 -120 -8 -66 0 -120 3 -120 8 0 4 25
77 55 162 31 85 58 161 61 169 2 8 7 12 9 9 3 -3 30 -79 60 -169z"/>
<path d="M1912 2423 l3 -498 280 0 c237 0 289 3 336 17 84 26 147 74 183 138
27 49 31 64 31 135 0 71 -4 86 -31 135 -23 40 -45 63 -82 86 l-51 31 38 31
c59 47 84 108 79 190 -4 86 -31 138 -90 178 -68 46 -129 54 -430 54 l-268 0 2
-497z m471 318 c69 -11 97 -42 97 -103 0 -100 -33 -118 -215 -118 l-125 0 0
115 0 115 98 -1 c53 0 118 -4 145 -8z m71 -391 c47 -24 68 -61 68 -119 0 -108
-42 -131 -242 -131 l-140 0 0 136 0 136 143 -4 c98 -3 151 -8 171 -18z"/>
<path d="M2840 2420 l0 -500 173 0 c94 0 204 5 242 10 230 33 367 217 368 495
1 114 -14 186 -54 266 -38 76 -73 115 -142 160 -87 56 -159 69 -391 69 l-196
0 0 -500z m417 285 c48 -19 95 -68 119 -123 11 -24 18 -77 21 -147 4 -95 2
-118 -16 -166 -41 -108 -123 -159 -258 -159 l-63 0 0 311 0 312 78 -6 c42 -3
96 -13 119 -22z"/>
<path d="M3732 2548 c3 -354 4 -376 24 -425 60 -146 198 -223 399 -223 194 0
339 83 396 226 23 58 24 68 27 427 l3 367 -110 0 -109 0 -4 -352 c-3 -346 -3
-354 -26 -396 -31 -58 -82 -81 -178 -82 -90 0 -148 27 -178 85 -20 38 -21 58
-24 393 l-3 352 -110 0 -110 0 3 -372z"/>
<path d="M4790 2420 l0 -500 405 0 405 0 0 95 0 95 -295 0 -295 0 0 405 0 405
-110 0 -110 0 0 -500z"/>
<path d="M4016 1709 c-151 -36 -286 -178 -332 -349 -20 -79 -23 -224 -5 -300
66 -276 310 -426 594 -365 171 36 304 169 352 352 8 31 15 100 15 153 0 157
-42 277 -132 375 -94 103 -199 146 -356 144 -54 -1 -114 -5 -136 -10z m253
-198 c54 -28 106 -90 127 -152 29 -82 27 -257 -4 -323 -51 -112 -126 -166
-231 -166 -112 0 -189 47 -238 148 -26 53 -28 65 -28 182 0 121 1 128 33 192
37 75 82 115 152 135 56 16 140 9 189 -16z"/>
<path d="M0 1200 l0 -500 313 0 312 1 72 92 73 92 -275 3 -275 2 0 120 0 120
185 0 185 0 0 90 0 90 -185 0 -185 0 0 100 0 100 275 2 275 3 -73 92 -72 92
-312 1 -313 0 0 -500z"/>
<path d="M1668 1693 c88 -3 121 -7 116 -15 -4 -7 -3 -8 4 -4 32 20 3 26 -115
24 l-128 -2 123 -3z"/>
<path d="M1912 1203 l3 -498 110 0 110 0 3 176 2 177 168 4 c147 3 173 7 218
26 64 29 126 92 156 157 33 74 32 200 -3 275 -32 70 -79 116 -149 149 -54 26
-58 26 -338 29 l-282 3 2 -498z m503 306 c97 -47 100 -205 5 -254 -22 -11 -71
-18 -156 -22 l-124 -6 0 153 0 153 123 -5 c76 -3 134 -10 152 -19z"/>
<path d="M2840 1200 l0 -500 375 0 375 0 0 95 0 95 -265 0 -265 0 0 405 0 405
-110 0 -110 0 0 -500z"/>
<path d="M4790 1200 l0 -500 110 0 110 0 0 196 0 195 149 -3 c149 -3 150 -3
179 -31 35 -34 47 -76 62 -217 7 -57 16 -112 21 -122 8 -16 24 -18 114 -18
108 0 115 3 95 40 -5 10 -14 71 -20 136 -6 65 -15 137 -21 159 -13 49 -51 100
-91 125 l-30 18 29 16 c41 21 88 76 104 123 8 21 13 70 13 108 0 88 -27 148
-91 205 -74 65 -104 70 -440 70 l-293 0 0 -500z m547 306 c39 -24 53 -54 53
-116 0 -114 -34 -134 -232 -138 l-148 -4 0 142 0 142 148 -4 c123 -2 152 -6
179 -22z"/>
<path d="M5790 1200 l0 -500 380 0 380 0 0 95 0 95 -267 2 -268 3 -3 118 -3
117 241 0 240 0 0 90 0 90 -240 0 -240 0 0 100 0 100 263 2 262 3 3 93 3 92
-376 0 -375 0 0 -500z"/>
<path d="M6690 1200 l0 -500 110 0 110 0 0 195 0 195 134 0 c74 0 147 -5 161
-10 60 -23 79 -66 95 -220 18 -171 9 -160 139 -160 l109 0 -14 40 c-8 22 -19
95 -24 163 -13 148 -39 213 -100 249 l-38 23 44 30 c26 18 55 50 71 80 24 44
28 61 28 135 0 75 -3 91 -29 138 -34 60 -78 97 -147 123 -44 17 -81 19 -349
19 l-300 0 0 -500z m524 317 c57 -17 81 -55 81 -127 0 -70 -23 -109 -76 -127
-20 -7 -92 -12 -171 -12 l-138 -1 0 133 c0 74 3 137 7 140 11 12 256 6 297 -6z"/>
<path d="M1784 722 c5 -8 -28 -12 -116 -15 l-123 -3 128 -2 c118 -2 147 4 115
24 -7 4 -8 3 -4 -4z"/>

</g>
<g transform="translate(0.000000,292.000000) scale(0.100000,-0.100000)" fill="#26415d">

<path d="M212 2382 c7 -10 220 -278 473 -596 253 -317 460 -581 460 -586 0 -5
-207 -268 -460 -586 -253 -318 -466 -586 -473 -596 -13 -17 -7 -18 110 -18
l123 0 475 596 c261 328 475 600 475 604 0 4 -214 276 -475 604 l-474 596
-124 0 c-117 0 -123 -1 -110 -18z"/>
<path d="M1460 1583 c-47 -58 -88 -111 -92 -118 -6 -9 103 -160 116 -160 5 0
306 375 306 381 0 2 -55 4 -122 4 l-123 0 -85 -107z"/>
<path d="M1424 1025 c-32 -42 -58 -81 -56 -86 1 -5 42 -59 90 -119 l87 -110
123 0 c96 0 122 3 116 13 -7 10 -273 346 -294 370 -4 4 -33 -27 -66 -68z"/>

</g>
</svg>
